<svg id="Capa_1" enable-background="new 0 0 512 512" height="512" viewBox="0 0 512 512" width="512" xmlns="http://www.w3.org/2000/svg"><path d="m512 256c0 19.926-2.278 39.32-6.583 57.929-9.268 40.051-27.92 76.497-53.53 106.893-13.479 16.008-28.891 30.344-45.871 42.632-42.151 30.542-93.989 48.546-150.016 48.546-78.597 0-148.929-35.422-195.887-91.178-37.512-44.533-60.113-102.045-60.113-164.822 0-141.385 114.615-256 256-256s256 114.615 256 256z" fill="#2e57cb"/><path d="m505.417 313.929c-9.268 40.051-27.92 76.497-53.53 106.893-13.479 16.008-28.891 30.344-45.871 42.632l-212.25-212.25 124.458-124.468z" fill="#2a4cba"/><g fill="#f7f7f7"><path d="m451.887 420.822c-46.958 55.756-117.29 91.178-195.887 91.178s-148.929-35.422-195.887-91.178c22.026-45.233 101.386-78.722 195.887-78.722 77.448 0 144.739 22.497 178.625 55.515 7.461 7.272 13.302 15.047 17.262 23.207z"/><path d="m318.227 126.741c34.374 34.374 34.374 90.087 0 124.461s-90.087 34.374-124.461 0-34.374-90.087 0-124.461 90.088-34.374 124.461 0z"/></g></svg>